<svg width="14" height="14" viewBox="0 0 14 14" fill="none" xmlns="http://www.w3.org/2000/svg">
<path d="M11.823 9.88129C11.6366 10.3117 11.4161 10.7079 11.1606 11.0722C10.8123 11.5688 10.5271 11.9125 10.3073 12.1034C9.96665 12.4167 9.60163 12.5772 9.21074 12.5863C8.93013 12.5863 8.59172 12.5064 8.1978 12.3445C7.80258 12.1832 7.43938 12.1034 7.10729 12.1034C6.75899 12.1034 6.38545 12.1832 5.9859 12.3445C5.58574 12.5064 5.26338 12.5909 5.01691 12.5992C4.64207 12.6152 4.26845 12.4502 3.89552 12.1034C3.65749 11.8958 3.35977 11.5399 3.00311 11.0357C2.62044 10.4973 2.30583 9.87293 2.05937 9.16113C1.79541 8.39229 1.66309 7.64779 1.66309 6.92702C1.66309 6.10137 1.84149 5.38927 2.19884 4.79253C2.47968 4.3132 2.8533 3.9351 3.32091 3.65753C3.78852 3.37995 4.29378 3.23851 4.83789 3.22946C5.13562 3.22946 5.52604 3.32155 6.01122 3.50254C6.49503 3.68414 6.80568 3.77624 6.94188 3.77624C7.04371 3.77624 7.38881 3.66855 7.97384 3.45387C8.52708 3.25478 8.99401 3.17235 9.37653 3.20482C10.413 3.28847 11.1918 3.69707 11.7096 4.43321C10.7826 4.99489 10.3241 5.7816 10.3332 6.79082C10.3416 7.57692 10.6267 8.23107 11.1872 8.75047C11.4412 8.99154 11.7249 9.17786 12.0404 9.31018C11.972 9.50866 11.8998 9.69878 11.823 9.88129ZM9.44573 0.526744C9.44573 1.14288 9.22063 1.71817 8.77195 2.25065C8.2305 2.88367 7.57558 3.24946 6.86538 3.19174C6.85633 3.11782 6.85108 3.04002 6.85108 2.95827C6.85108 2.36678 7.10858 1.73376 7.56585 1.21619C7.79414 0.954128 8.08449 0.73623 8.43659 0.562409C8.78792 0.391182 9.12025 0.296489 9.4328 0.280273C9.44193 0.362642 9.44573 0.445015 9.44573 0.526736V0.526744Z" fill="white"/>
</svg>
