<svg width="20" height="20" viewBox="0 0 20 20" fill="none" xmlns="http://www.w3.org/2000/svg">
<path d="M2 2C2 0.895431 2.89543 0 4 0H8C9.10457 0 10 0.895431 10 2V4H2V2Z" fill="#B3C4F9"/>
<path d="M10 4L10 2L10.0156 2C10.131 3.04277 10.9572 3.87003 12 3.98535L12 4L10 4Z" fill="#B3C4F9"/>
<path d="M0 4H18C19.1046 4 20 4.89543 20 6V18C20 19.1046 19.1046 20 18 20H2C0.895431 20 0 19.1046 0 18V4Z" fill="#0941EC"/>
<path d="M0 2C0 0.895431 0.895431 0 2 0H6C7.10457 0 8 0.895431 8 2V4H0V2Z" fill="#0941EC"/>
<path d="M8 4L8 2L8.01562 2C8.131 3.04277 8.95721 3.87003 10 3.98535L10 4L8 4Z" fill="#0941EC"/>
</svg>
