<svg width="22" height="22" viewBox="0 0 22 22" fill="none" xmlns="http://www.w3.org/2000/svg">
<path d="M20.1668 17.4167C20.1668 17.9029 19.9737 18.3692 19.6299 18.713C19.286 19.0568 18.8197 19.25 18.3335 19.25H3.66683C3.1806 19.25 2.71428 19.0568 2.37047 18.713C2.02665 18.3692 1.8335 17.9029 1.8335 17.4167V4.58333C1.8335 4.0971 2.02665 3.63079 2.37047 3.28697C2.71428 2.94315 3.1806 2.75 3.66683 2.75H8.25016L10.0835 5.5H18.3335C18.8197 5.5 19.286 5.69315 19.6299 6.03697C19.9737 6.38079 20.1668 6.8471 20.1668 7.33333V17.4167Z" stroke="black" stroke-width="2" stroke-linecap="round" stroke-linejoin="round"/>
<path d="M11 10.0835V15.5835" stroke="black" stroke-width="2" stroke-linecap="round" stroke-linejoin="round"/>
<path d="M8.25 12.8335H13.75" stroke="black" stroke-width="2" stroke-linecap="round" stroke-linejoin="round"/>
</svg>
