<svg width="19" height="19" viewBox="0 0 19 19" fill="none" xmlns="http://www.w3.org/2000/svg">
<g clip-path="url(#clip0_955_6585)">
<path d="M17.4168 8.77148V9.49981C17.4159 11.207 16.8631 12.8681 15.8409 14.2354C14.8187 15.6027 13.3819 16.603 11.7448 17.0871C10.1077 17.5711 8.35799 17.513 6.75662 16.9214C5.15524 16.3297 3.78801 15.2363 2.85884 13.8042C1.92967 12.372 1.48833 10.6779 1.60066 8.97439C1.71298 7.27093 2.37295 5.6494 3.48213 4.35166C4.59132 3.05392 6.09028 2.14949 7.75548 1.77326C9.42067 1.39703 11.1629 1.56916 12.7222 2.26398" stroke="#0941EC" stroke-width="2" stroke-linecap="round" stroke-linejoin="round"/>
<path d="M17.4167 3.1665L9.5 11.0911L7.125 8.71609" stroke="#0941EC" stroke-width="2" stroke-linecap="round" stroke-linejoin="round"/>
</g>
<defs>
<clipPath id="clip0_955_6585">
<rect width="19" height="19" fill="white"/>
</clipPath>
</defs>
</svg>
