<svg width="19" height="19" viewBox="0 0 19 19" fill="none" xmlns="http://www.w3.org/2000/svg">
<g clip-path="url(#clip0_4174_14792)">
<path d="M17.4168 8.77099V9.49932C17.4159 11.2065 16.8631 12.8676 15.8409 14.2349C14.8187 15.6023 13.3819 16.6025 11.7448 17.0866C10.1077 17.5706 8.35799 17.5125 6.75662 16.9209C5.15524 16.3292 3.78801 15.2358 2.85884 13.8037C1.92967 12.3715 1.48833 10.6774 1.60066 8.97391C1.71298 7.27044 2.37295 5.64891 3.48213 4.35117C4.59132 3.05343 6.09028 2.149 7.75548 1.77277C9.42067 1.39654 11.1629 1.56867 12.7222 2.26349" stroke="#0B84FF" stroke-width="2" stroke-linecap="round" stroke-linejoin="round"/>
<path d="M17.4167 3.16602L9.5 11.0906L7.125 8.7156" stroke="#0B84FF" stroke-width="2" stroke-linecap="round" stroke-linejoin="round"/>
</g>
<defs>
<clipPath id="clip0_4174_14792">
<rect width="19" height="19" fill="white"/>
</clipPath>
</defs>
</svg>
